HIERARCHY
ROOT mixamorig:Hips
{
	OFFSET -0.000008 104.274872 1.554316
	CHANNELS 6 Xposition Yposition Zposition Xrotation Yrotation Zrotation
	JOINT mixamorig:Spine
	{
		OFFSET -0.000005 10.181595 0.131519
		CHANNELS 6 Xposition Yposition Zposition Xrotation Yrotation Zrotation
		JOINT mixamorig:Spine1
		{
			OFFSET -0.000000 9.893959 -1.470707
			CHANNELS 6 Xposition Yposition Zposition Xrotation Yrotation Zrotation
			JOINT mixamorig:Spine2
			{
				OFFSET -0.000000 9.220757 -1.370641
				CHANNELS 6 Xposition Yposition Zposition Xrotation Yrotation Zrotation
				JOINT mixamorig:Neck
				{
					OFFSET 0.000001 16.740417 -2.049036
					CHANNELS 6 Xposition Yposition Zposition Xrotation Yrotation Zrotation
					JOINT mixamorig:Head
					{
						OFFSET 0.000000 9.617874 1.685006
						CHANNELS 6 Xposition Yposition Zposition Xrotation Yrotation Zrotation
						JOINT mixamorig:HeadTop_End
						{
							OFFSET 0.000002 22.037354 7.501101
							CHANNELS 6 Xposition Yposition Zposition Xrotation Yrotation Zrotation
							End Site
							{
								OFFSET 0.000168 2310.654297 -282.823242
							}
						}
					}
				}
				JOINT mixamorig:RightShoulder
				{
					OFFSET -4.569970 11.014908 -2.160885
					CHANNELS 6 Xposition Yposition Zposition Xrotation Yrotation Zrotation
					JOINT mixamorig:RightArm
					{
						OFFSET -10.592851 -0.524811 -2.232101
						CHANNELS 6 Xposition Yposition Zposition Xrotation Yrotation Zrotation
						JOINT mixamorig:RightForeArm
						{
							OFFSET -27.841511 0.000031 -0.000004
							CHANNELS 6 Xposition Yposition Zposition Xrotation Yrotation Zrotation
							JOINT mixamorig:RightHand
							{
								OFFSET -28.328831 -0.000015 0.000015
								CHANNELS 6 Xposition Yposition Zposition Xrotation Yrotation Zrotation
								JOINT mixamorig:RightHandThumb1
								{
									OFFSET -2.464806 -1.573990 2.681852
									CHANNELS 6 Xposition Yposition Zposition Xrotation Yrotation Zrotation
									JOINT mixamorig:RightHandThumb2
									{
										OFFSET -3.215179 -1.872803 1.924282
										CHANNELS 6 Xposition Yposition Zposition Xrotation Yrotation Zrotation
										JOINT mixamorig:RightHandThumb3
										{
											OFFSET -2.654831 -1.527969 1.512609
											CHANNELS 6 Xposition Yposition Zposition Xrotation Yrotation Zrotation
											JOINT mixamorig:RightHandThumb4
											{
												OFFSET -2.018814 -1.152008 1.108052
												CHANNELS 6 Xposition Yposition Zposition Xrotation Yrotation Zrotation
												End Site
												{
													OFFSET -188.809540 -114.533607 132.431396
												}
											}
										}
									}
								}
								JOINT mixamorig:RightHandIndex1
								{
									OFFSET -9.108284 -0.517868 2.259835
									CHANNELS 6 Xposition Yposition Zposition Xrotation Yrotation Zrotation
									JOINT mixamorig:RightHandIndex2
									{
										OFFSET -3.699989 0.000000 0.001215
										CHANNELS 6 Xposition Yposition Zposition Xrotation Yrotation Zrotation
										JOINT mixamorig:RightHandIndex3
										{
											OFFSET -2.850006 0.000031 -0.000522
											CHANNELS 6 Xposition Yposition Zposition Xrotation Yrotation Zrotation
											JOINT mixamorig:RightHandIndex4
											{
												OFFSET -2.772186 -0.000015 -0.000020
												CHANNELS 6 Xposition Yposition Zposition Xrotation Yrotation Zrotation
												End Site
												{
													OFFSET -277.218445 0.000000 -0.050231
												}
											}
										}
									}
								}
								JOINT mixamorig:RightHandMiddle1
								{
									OFFSET -9.532516 -0.000031 -0.000023
									CHANNELS 6 Xposition Yposition Zposition Xrotation Yrotation Zrotation
									JOINT mixamorig:RightHandMiddle2
									{
										OFFSET -3.700005 -0.000015 0.003713
										CHANNELS 6 Xposition Yposition Zposition Xrotation Yrotation Zrotation
										JOINT mixamorig:RightHandMiddle3
										{
											OFFSET -2.949974 0.000015 -0.002054
											CHANNELS 6 Xposition Yposition Zposition Xrotation Yrotation Zrotation
											JOINT mixamorig:RightHandMiddle4
											{
												OFFSET -2.946640 0.000000 -0.000156
												CHANNELS 6 Xposition Yposition Zposition Xrotation Yrotation Zrotation
												End Site
												{
													OFFSET -294.664337 0.000000 -0.113670
												}
											}
										}
									}
								}
								JOINT mixamorig:RightHandRing1
								{
									OFFSET -9.103600 -0.043076 -1.865134
									CHANNELS 6 Xposition Yposition Zposition Xrotation Yrotation Zrotation
									JOINT mixamorig:RightHandRing2
									{
										OFFSET -3.379288 0.000000 -0.001055
										CHANNELS 6 Xposition Yposition Zposition Xrotation Yrotation Zrotation
										JOINT mixamorig:RightHandRing3
										{
											OFFSET -2.889687 -0.000015 0.000379
											CHANNELS 6 Xposition Yposition Zposition Xrotation Yrotation Zrotation
											JOINT mixamorig:RightHandRing4
											{
												OFFSET -2.638809 -0.000015 0.000941
												CHANNELS 6 Xposition Yposition Zposition Xrotation Yrotation Zrotation
												End Site
												{
													OFFSET -263.880371 0.000000 0.516020
												}
											}
										}
									}
								}
								JOINT mixamorig:RightHandPinky1
								{
									OFFSET -8.076683 -0.486710 -3.806280
									CHANNELS 6 Xposition Yposition Zposition Xrotation Yrotation Zrotation
									JOINT mixamorig:RightHandPinky2
									{
										OFFSET -3.600014 -0.000015 -0.003747
										CHANNELS 6 Xposition Yposition Zposition Xrotation Yrotation Zrotation
										JOINT mixamorig:RightHandPinky3
										{
											OFFSET -2.099983 0.000000 -0.005739
											CHANNELS 6 Xposition Yposition Zposition Xrotation Yrotation Zrotation
											JOINT mixamorig:RightHandPinky4
											{
												OFFSET -2.115768 -0.000031 -0.003680
												CHANNELS 6 Xposition Yposition Zposition Xrotation Yrotation Zrotation
												End Site
												{
													OFFSET -211.577087 0.000000 -0.350686
												}
											}
										}
									}
								}
							}
						}
					}
				}
				JOINT mixamorig:LeftShoulder
				{
					OFFSET 4.570447 11.014725 -2.160855
					CHANNELS 6 Xposition Yposition Zposition Xrotation Yrotation Zrotation
					JOINT mixamorig:LeftArm
					{
						OFFSET 10.592371 -0.524597 -2.232119
						CHANNELS 6 Xposition Yposition Zposition Xrotation Yrotation Zrotation
						JOINT mixamorig:LeftForeArm
						{
							OFFSET 27.841532 -0.000031 0.000026
							CHANNELS 6 Xposition Yposition Zposition Xrotation Yrotation Zrotation
							JOINT mixamorig:LeftHand
							{
								OFFSET 28.328846 -0.000061 0.000022
								CHANNELS 6 Xposition Yposition Zposition Xrotation Yrotation Zrotation
								JOINT mixamorig:LeftHandThumb1
								{
									OFFSET 2.466141 -1.576172 2.681732
									CHANNELS 6 Xposition Yposition Zposition Xrotation Yrotation Zrotation
									JOINT mixamorig:LeftHandThumb2
									{
										OFFSET 3.217812 -1.872070 1.916482
										CHANNELS 6 Xposition Yposition Zposition Xrotation Yrotation Zrotation
										JOINT mixamorig:LeftHandThumb3
										{
											OFFSET 2.656029 -1.528778 1.514513
											CHANNELS 6 Xposition Yposition Zposition Xrotation Yrotation Zrotation
											JOINT mixamorig:LeftHandThumb4
											{
												OFFSET 2.020889 -1.154053 1.115139
												CHANNELS 6 Xposition Yposition Zposition Xrotation Yrotation Zrotation
												End Site
												{
													OFFSET 190.885437 -115.081749 130.048782
												}
											}
										}
									}
								}
								JOINT mixamorig:LeftHandIndex1
								{
									OFFSET 9.109314 -0.518021 2.259871
									CHANNELS 6 Xposition Yposition Zposition Xrotation Yrotation Zrotation
									JOINT mixamorig:LeftHandIndex2
									{
										OFFSET 3.699989 0.000000 -0.000322
										CHANNELS 6 Xposition Yposition Zposition Xrotation Yrotation Zrotation
										JOINT mixamorig:LeftHandIndex3
										{
											OFFSET 2.850006 0.000000 0.000352
											CHANNELS 6 Xposition Yposition Zposition Xrotation Yrotation Zrotation
											JOINT mixamorig:LeftHandIndex4
											{
												OFFSET 2.774864 -0.000031 -0.000027
												CHANNELS 6 Xposition Yposition Zposition Xrotation Yrotation Zrotation
												End Site
												{
													OFFSET 277.486267 0.000000 -0.009857
												}
											}
										}
									}
								}
								JOINT mixamorig:LeftHandMiddle1
								{
									OFFSET 9.533394 0.000061 0.000044
									CHANNELS 6 Xposition Yposition Zposition Xrotation Yrotation Zrotation
									JOINT mixamorig:LeftHandMiddle2
									{
										OFFSET 3.699989 -0.000015 -0.000231
										CHANNELS 6 Xposition Yposition Zposition Xrotation Yrotation Zrotation
										JOINT mixamorig:LeftHandMiddle3
										{
											OFFSET 2.949997 -0.000015 -0.000059
											CHANNELS 6 Xposition Yposition Zposition Xrotation Yrotation Zrotation
											JOINT mixamorig:LeftHandMiddle4
											{
												OFFSET 2.952896 0.000031 0.000063
												CHANNELS 6 Xposition Yposition Zposition Xrotation Yrotation Zrotation
												End Site
												{
													OFFSET 295.289337 0.000000 0.022810
												}
											}
										}
									}
								}
								JOINT mixamorig:LeftHandRing1
								{
									OFFSET 9.104523 -0.042999 -1.865074
									CHANNELS 6 Xposition Yposition Zposition Xrotation Yrotation Zrotation
									JOINT mixamorig:LeftHandRing2
									{
										OFFSET 3.150009 -0.000031 0.000043
										CHANNELS 6 Xposition Yposition Zposition Xrotation Yrotation Zrotation
										JOINT mixamorig:LeftHandRing3
										{
											OFFSET 2.949982 -0.000015 0.000040
											CHANNELS 6 Xposition Yposition Zposition Xrotation Yrotation Zrotation
											JOINT mixamorig:LeftHandRing4
											{
												OFFSET 2.644348 0.000000 0.000057
												CHANNELS 6 Xposition Yposition Zposition Xrotation Yrotation Zrotation
												End Site
												{
													OFFSET 264.434631 0.000000 0.012105
												}
											}
										}
									}
								}
								JOINT mixamorig:LeftHandPinky1
								{
									OFFSET 8.077789 -0.486847 -3.806259
									CHANNELS 6 Xposition Yposition Zposition Xrotation Yrotation Zrotation
									JOINT mixamorig:LeftHandPinky2
									{
										OFFSET 3.599953 0.000031 0.014727
										CHANNELS 6 Xposition Yposition Zposition Xrotation Yrotation Zrotation
										JOINT mixamorig:LeftHandPinky3
										{
											OFFSET 2.100021 0.000015 0.007705
											CHANNELS 6 Xposition Yposition Zposition Xrotation Yrotation Zrotation
											JOINT mixamorig:LeftHandPinky4
											{
												OFFSET 2.125504 0.000031 0.007517
												CHANNELS 6 Xposition Yposition Zposition Xrotation Yrotation Zrotation
												End Site
												{
													OFFSET 212.550781 0.000000 0.625752
												}
											}
										}
									}
								}
							}
						}
					}
				}
			}
		}
	}
	JOINT mixamorig:RightUpLeg
	{
		OFFSET -8.207787 -6.751648 -1.599560
		CHANNELS 6 Xposition Yposition Zposition Xrotation Yrotation Zrotation
		JOINT mixamorig:RightLeg
		{
			OFFSET -0.000002 -44.370117 0.345942
			CHANNELS 6 Xposition Yposition Zposition Xrotation Yrotation Zrotation
			JOINT mixamorig:RightFoot
			{
				OFFSET 0.000003 -44.423679 -3.043532
				CHANNELS 6 Xposition Yposition Zposition Xrotation Yrotation Zrotation
				JOINT mixamorig:RightToeBase
				{
					OFFSET -0.000002 -8.728671 10.710558
					CHANNELS 6 Xposition Yposition Zposition Xrotation Yrotation Zrotation
					JOINT mixamorig:RightToe_End
					{
						OFFSET -0.000001 -0.000679 9.278119
						CHANNELS 6 Xposition Yposition Zposition Xrotation Yrotation Zrotation
						End Site
						{
							OFFSET 0.000000 -0.067690 927.812134
						}
					}
				}
			}
		}
	}
	JOINT mixamorig:LeftUpLeg
	{
		OFFSET 8.207793 -6.751686 -1.599556
		CHANNELS 6 Xposition Yposition Zposition Xrotation Yrotation Zrotation
		JOINT mixamorig:LeftLeg
		{
			OFFSET -0.000004 -44.370014 0.346954
			CHANNELS 6 Xposition Yposition Zposition Xrotation Yrotation Zrotation
			JOINT mixamorig:LeftFoot
			{
				OFFSET -0.000001 -44.423672 -3.044401
				CHANNELS 6 Xposition Yposition Zposition Xrotation Yrotation Zrotation
				JOINT mixamorig:LeftToeBase
				{
					OFFSET -0.000002 -8.728669 10.710558
					CHANNELS 6 Xposition Yposition Zposition Xrotation Yrotation Zrotation
					JOINT mixamorig:LeftToe_End
					{
						OFFSET -0.000003 -0.000679 9.278133
						CHANNELS 6 Xposition Yposition Zposition Xrotation Yrotation Zrotation
						End Site
						{
							OFFSET 0.000000 -0.068021 927.813477
						}
					}
				}
			}
		}
	}
}
MOTION
Frames: 3
Frame Time: 0.033333
0.000006 104.270477 1.554256 0.000010 0.000003 -0.000113 -0.000005 10.181587 0.131522 0.000001 -0.000003 0.000084 -0.000000 9.893967 -1.470711 0.000001 0.000000 -0.000000 -0.000000 9.220802 -1.370642 0.000000 -0.000000 -0.000000 0.000001 16.740433 -2.049030 0.000000 -0.000000 -0.000000 0.000000 9.617859 1.685014 0.000000 0.000000 0.000000 0.000002 22.037384 7.501101 0.000000 -0.000000 0.000000 -4.569968 11.014880 -2.160881 0.000008 0.000001 -0.000038 -10.592873 -0.524767 -2.231896 73.397746 30.792006 -23.197402 -27.841528 0.000018 0.000545 -60.817630 104.773237 74.596007 -28.328810 0.000019 0.000026 -0.000320 -0.000042 0.000005 -2.464469 -1.573988 2.682402 -15.463432 -149.981037 50.223662 -3.215252 -1.872539 1.924638 153.305440 34.847851 25.598767 -2.654951 -1.527913 1.513099 152.259287 25.481284 -39.844858 -2.018824 -1.151983 1.108062 -0.000001 -0.000002 0.000007 -9.108384 -0.517571 2.260186 109.885046 17.438726 -24.724566 -3.700063 0.000310 0.001542 106.451005 12.274720 -16.342886 -2.850080 0.000381 -0.000228 103.628245 9.105639 -11.560952 -2.772167 -0.000013 -0.000018 0.000000 0.000000 -0.000001 -9.532585 0.000270 0.000257 95.118437 16.817432 -18.521786 -3.700055 0.000340 0.003982 97.528462 10.022374 -11.320004 -2.950046 0.000331 -0.001816 95.739807 9.211744 -10.171594 -2.946631 0.000006 -0.000156 0.000000 0.000000 -0.000000 -9.103698 -0.042755 -1.864857 92.608349 18.581379 -19.383761 -3.379341 0.000324 -0.000788 97.951722 8.923537 -10.269720 -2.889734 0.000367 0.000646 100.353593 5.003940 -6.052459 -2.638816 0.000001 0.000941 0.000001 0.000002 0.000003 -8.076733 -0.486383 -3.806051 81.155488 16.438556 -13.974967 -3.600025 0.000281 -0.003533 88.696420 7.932616 -7.409938 -2.100027 0.000326 -0.005496 93.025148 4.628883 -4.651822 -2.115769 -0.000039 -0.003680 0.000000 -0.000000 -0.000003 4.570446 11.014691 -2.160851 -0.000018 0.000010 -0.000021 10.592404 -0.524475 -2.232360 74.719947 -14.207850 10.870307 27.841805 0.000069 -0.000236 92.870724 -72.463314 75.221631 28.328838 -0.000028 0.000019 0.000022 -0.000089 0.000000 2.466119 -1.576163 2.681880 -21.250262 154.188829 -43.355869 3.217745 -1.871681 1.916373 155.023929 -34.426681 -20.238407 2.656113 -1.528630 1.514452 146.172141 -26.568956 41.445233 2.020884 -1.154074 1.115143 0.000003 0.000005 0.000002 9.109377 -0.517850 2.259722 83.247124 -16.607123 14.767298 3.700058 0.000134 -0.000460 82.511506 -18.338030 16.132644 2.850058 0.000161 0.000214 80.753450 -15.428188 13.140398 2.774882 -0.000017 -0.000024 0.000000 0.000001 -0.000001 9.533456 0.000206 -0.000103 80.288464 -15.770683 13.317687 3.700052 0.000161 -0.000350 86.871544 -17.818111 16.882173 2.950067 0.000135 -0.000184 82.620468 -21.534559 18.978825 2.952877 -0.000026 0.000064 0.000000 -0.000001 -0.000002 9.104575 -0.042848 -1.865219 77.527551 -15.068982 12.126447 3.150059 0.000165 -0.000089 87.597333 -15.664358 15.030207 2.950024 0.000151 -0.000048 86.303634 -18.037749 16.928675 2.644332 0.000046 0.000058 0.000001 0.000001 0.000000 8.077833 -0.486741 -3.806415 66.631125 -15.392185 10.543322 3.599979 0.000147 0.014563 67.724092 -12.878131 9.008529 2.100058 0.000148 0.007539 71.442044 -13.263109 9.915490 2.125507 -0.000026 0.007518 0.000002 -0.000001 -0.000001 -8.207786 -6.751667 -1.599560 -0.077001 -0.000003 0.000080 -0.000002 -44.370110 0.345938 0.153719 -0.000000 -0.000000 0.000000 -44.423679 -3.043532 -0.076700 0.000000 -0.000002 -0.000006 -8.728667 10.710559 -0.000009 -0.000000 -0.000000 -0.000001 -0.000679 9.278123 0.000000 -0.000000 -0.000000 8.207792 -6.751710 -1.599556 -0.074518 -0.000003 0.000081 -0.000002 -44.370014 0.346960 0.148822 0.000002 0.000000 -0.000001 -44.423664 -3.044403 -0.074314 0.000000 -0.000002 -0.000004 -8.728671 10.710558 0.000007 -0.000000 -0.000000 0.000000 -0.000680 9.278137 -0.000000 0.000000 -0.000001 
0.000006 104.270477 1.554256 0.000010 0.000003 -0.000113 -0.000005 10.181587 0.131522 0.000001 -0.000003 0.000084 -0.000000 9.893967 -1.470711 0.000001 0.000000 -0.000000 -0.000000 9.220802 -1.370642 0.000000 -0.000000 -0.000000 0.000001 16.740433 -2.049030 0.000000 -0.000000 -0.000000 0.000000 9.617859 1.685014 0.000000 0.000000 0.000000 0.000002 22.037384 7.501101 0.000000 -0.000000 0.000000 -4.569968 11.014880 -2.160881 0.000008 0.000001 -0.000038 -10.592871 -0.524778 -2.231883 72.696299 35.306809 -26.360717 -27.841532 0.000035 0.000536 -58.083000 102.653652 69.501020 -28.328810 0.000017 0.000033 -0.000316 -0.000044 0.000006 -2.464443 -1.573951 2.682387 -26.634963 -151.902506 32.250770 -3.215261 -1.872538 1.924630 152.583749 33.854232 20.550229 -2.654965 -1.527853 1.513071 150.009314 27.284867 -29.025948 -2.018833 -1.152018 1.108062 -0.000001 -0.000005 -0.000001 -9.108367 -0.517560 2.260151 108.514460 15.653808 -21.690287 -3.700073 0.000331 0.001562 108.378355 10.612447 -14.638610 -2.850070 0.000387 -0.000204 105.994871 8.190337 -10.852715 -2.772185 -0.000001 -0.000019 0.000000 0.000002 -0.000001 -9.532596 0.000263 0.000260 95.235144 18.397603 -20.284637 -3.700073 0.000315 0.003978 96.734535 11.618726 -12.953828 -2.950051 0.000322 -0.001794 98.054565 10.553988 -12.133428 -2.946615 -0.000013 -0.000156 -0.000002 0.000003 -0.000001 -9.103706 -0.042767 -1.864859 91.853292 20.917297 -21.541638 -3.379352 0.000314 -0.000796 95.750503 11.369799 -12.582673 -2.889755 0.000352 0.000668 102.802222 6.629241 -8.356218 -2.638795 -0.000004 0.000944 -0.000001 0.000001 0.000004 -8.076752 -0.486398 -3.806055 81.382851 19.824785 -16.957135 -3.600063 0.000261 -0.003518 86.793543 11.440560 -10.472631 -2.100025 0.000316 -0.005468 93.706862 7.063263 -7.295777 -2.115783 -0.000043 -0.003676 0.000001 0.000000 -0.000006 4.570446 11.014691 -2.160851 -0.000018 0.000010 -0.000021 10.592393 -0.524477 -2.232354 73.753715 -10.304689 7.739689 27.841820 0.000046 -0.000183 94.557214 -73.907742 78.335487 28.328833 -0.000029 0.000029 0.000019 -0.000089 -0.000000 2.466268 -1.575943 2.681803 17.204649 182.640583 -127.313866 3.217880 -1.871865 1.916439 172.013342 -16.528078 49.553972 2.656118 -1.528696 1.514500 146.746560 -23.841207 65.746909 2.020902 -1.154082 1.115146 0.000004 0.000003 0.000004 9.109386 -0.517867 2.259740 89.969554 -22.455970 22.431280 3.700032 0.000165 -0.000471 87.850405 -14.080904 13.583703 2.850049 0.000209 0.000216 86.675101 -9.794472 9.243237 2.774895 -0.000046 -0.000029 -0.000002 -0.000003 -0.000000 9.533471 0.000190 -0.000086 83.556484 -22.543598 20.184746 3.700049 0.000165 -0.000374 87.647870 -11.786603 11.312982 2.950051 0.000183 -0.000200 87.949730 -10.498267 10.133886 2.952874 -0.000013 0.000065 0.000003 0.000004 -0.000000 9.104584 -0.042877 -1.865204 80.616135 -21.821771 18.575917 3.150059 0.000182 -0.000085 88.534852 -14.123476 13.772143 2.950008 0.000173 -0.000090 87.917464 -10.429718 10.060969 2.644310 0.000031 0.000055 -0.000001 0.000000 -0.000000 8.077832 -0.486764 -3.806391 68.298326 -20.928173 14.709793 3.600014 0.000126 0.014581 69.734797 -17.052546 12.304514 2.100043 0.000142 0.007549 72.541281 -12.450808 9.512922 2.125499 -0.000017 0.007511 -0.000002 0.000003 -0.000001 -8.207786 -6.751667 -1.599560 -0.077001 -0.000003 0.000080 -0.000002 -44.370110 0.345938 0.153719 -0.000000 -0.000000 0.000000 -44.423679 -3.043532 -0.076700 0.000000 -0.000002 -0.000006 -8.728667 10.710559 -0.000009 -0.000000 -0.000000 -0.000001 -0.000679 9.278123 0.000000 -0.000000 -0.000000 8.207792 -6.751710 -1.599556 -0.074518 -0.000003 0.000081 -0.000002 -44.370014 0.346960 0.148822 0.000002 0.000000 -0.000001 -44.423664 -3.044403 -0.074314 0.000000 -0.000002 -0.000004 -8.728671 10.710558 0.000007 -0.000000 -0.000000 0.000000 -0.000680 9.278137 -0.000000 0.000000 -0.000001 
0.000006 104.270477 1.554256 0.000010 0.000003 -0.000113 -0.000005 10.181587 0.131522 0.000001 -0.000003 0.000084 -0.000000 9.893967 -1.470711 0.000001 0.000000 -0.000000 -0.000000 9.220802 -1.370642 0.000000 -0.000000 -0.000000 0.000001 16.740433 -2.049030 0.000000 -0.000000 -0.000000 0.000000 9.617859 1.685014 0.000000 0.000000 0.000000 0.000002 22.037384 7.501101 0.000000 -0.000000 0.000000 -4.569968 11.014880 -2.160881 0.000008 0.000001 -0.000038 -10.592863 -0.524780 -2.231881 72.586517 36.086611 -26.908292 -27.841541 0.000013 0.000558 -55.552852 102.007407 66.089880 -28.328835 0.000019 0.000031 -0.000321 -0.000041 0.000003 -2.464438 -1.573877 2.682377 -36.321187 -155.461936 14.971472 -3.215279 -1.872594 1.924666 154.131374 30.548919 -2.453846 -2.654967 -1.527908 1.513064 144.289631 27.887425 -31.201940 -2.018840 -1.152003 1.108064 -0.000001 0.000003 -0.000002 -9.108366 -0.517562 2.260151 106.559987 14.937152 -19.997226 -3.700089 0.000331 0.001534 105.147388 10.619628 -13.818993 -2.850064 0.000380 -0.000220 103.231575 8.123784 -10.244175 -2.772161 -0.000016 -0.000020 0.000000 0.000001 -0.000001 -9.532598 0.000277 0.000236 93.401785 15.402807 -16.483079 -3.700066 0.000319 0.003976 93.831097 10.233010 -10.838078 -2.950059 0.000343 -0.001817 95.756677 9.336603 -10.312452 -2.946620 0.000001 -0.000155 0.000001 0.000002 0.000001 -9.103704 -0.042752 -1.864884 90.422730 17.494058 -17.576462 -3.379332 0.000328 -0.000798 93.196490 10.536888 -11.156589 -2.889752 0.000341 0.000652 100.116940 6.943281 -8.341923 -2.638812 -0.000019 0.000939 0.000003 -0.000001 0.000001 -8.076761 -0.486385 -3.806061 81.502810 17.451150 -14.936230 -3.600059 0.000246 -0.003532 84.875113 10.317434 -9.104699 -2.100018 0.000318 -0.005479 91.828191 6.350936 -6.327760 -2.115776 -0.000055 -0.003679 0.000004 -0.000003 -0.000003 4.570446 11.014691 -2.160851 -0.000018 0.000010 -0.000021 10.592402 -0.524477 -2.232356 73.133267 -13.774897 10.239961 27.841812 0.000058 -0.000196 94.076102 -75.865145 79.852691 28.328833 -0.000028 0.000028 0.000022 -0.000089 -0.000000 2.466246 -1.575878 2.681804 26.892446 192.131459 -144.536720 3.217873 -1.871929 1.916499 166.855880 -10.556362 71.442474 2.656111 -1.528691 1.514511 141.116366 -26.478103 64.912711 2.020910 -1.154086 1.115148 -0.000000 0.000001 0.000004 9.109399 -0.517865 2.259751 89.538937 -23.877500 23.678458 3.700051 0.000170 -0.000462 91.478383 -15.793728 16.219024 2.850052 0.000210 0.000201 91.898863 -11.731091 12.122239 2.774902 -0.000047 -0.000024 0.000000 0.000001 0.000000 9.533484 0.000186 -0.000075 85.456308 -20.820491 19.253926 3.700064 0.000196 -0.000391 90.292068 -11.678440 11.735031 2.950055 0.000180 -0.000209 91.341185 -10.037758 10.277179 2.952873 -0.000016 0.000063 -0.000002 -0.000002 0.000000 9.104596 -0.042857 -1.865200 83.474064 -20.063783 17.938513 3.150043 0.000193 -0.000102 90.772531 -14.475343 14.671607 2.950014 0.000190 -0.000092 90.715779 -10.509034 10.642146 2.644319 0.000046 0.000056 0.000003 -0.000000 -0.000000 8.077854 -0.486746 -3.806423 73.216384 -20.420949 15.704326 3.600014 0.000162 0.014578 73.756911 -17.648155 13.692364 2.100044 0.000158 0.007555 75.884173 -12.906012 10.462262 2.125494 -0.000018 0.007515 0.000001 0.000001 -0.000003 -8.207786 -6.751667 -1.599560 -0.077001 -0.000003 0.000080 -0.000002 -44.370110 0.345938 0.153719 -0.000000 -0.000000 0.000000 -44.423679 -3.043532 -0.076700 0.000000 -0.000002 -0.000006 -8.728667 10.710559 -0.000009 -0.000000 -0.000000 -0.000001 -0.000679 9.278123 0.000000 -0.000000 -0.000000 8.207792 -6.751710 -1.599556 -0.074518 -0.000003 0.000081 -0.000002 -44.370014 0.346960 0.148822 0.000002 0.000000 -0.000001 -44.423664 -3.044403 -0.074314 0.000000 -0.000002 -0.000004 -8.728671 10.710558 0.000007 -0.000000 -0.000000 0.000000 -0.000680 9.278137 -0.000000 0.000000 -0.000001 
